<?xml version="1.0" encoding="UTF-8" standalone="no"?>
<svg width="150px" height="150px" viewBox="0 0 150 150" version="1.1" xmlns="http://www.w3.org/2000/svg" xmlns:xlink="http://www.w3.org/1999/xlink">
    <!-- Generator: Sketch 44.1 (41455) - http://www.bohemiancoding.com/sketch -->
    <title>wave-logo</title>
    <desc>Created with Sketch.</desc>
    <defs>
        <rect id="path-1" x="0" y="0" width="150" height="150"></rect>
    </defs>
    <g id="BASIC" stroke="none" stroke-width="1" fill="none" fill-rule="evenodd">
        <g id="wave-logo">
            <g id="Clip-2-Copy">
                <mask id="mask-2" fill="white">
                    <use xlink:href="#path-1"></use>
                </mask>
                <g id="Mask"></g>
            </g>
            <g id="Group" transform="translate(-1.000000, 4.000000)" fill="#4840BB">
                <path d="M149.916864,140.705367 L149.916864,140.271252 C149.817948,140.08959 149.61802,139.855798 149.281877,139.556872 C117.309832,112.551844 122.354171,57.3175793 132.459093,6.14519712 C132.865979,4.0847049 133.140102,2.70725274 131.498301,2.48639378 C121.041862,1.07968057 86.0296563,6.16425916 75.9613822,8.72248236 C73.3414143,9.38818737 73.0936911,10.1377979 73.0209465,11.7843018 C68.4830971,114.493584 131.2983,137.113315 148.411695,140.761816 C148.800578,140.844727 149.655511,140.956375 149.916864,140.705367 L149.916864,140.705367 L149.916864,140.705367 Z M60.4057551,40.4231397 C47.4988204,42.7036763 35.5063937,47.3858667 25.1262753,51.5979253 C24.2158605,51.8417564 22.7419595,53.3561946 23.0834156,55.2772244 C26.7861032,76.1082843 45.5858334,134.992313 121.276676,140.87464 C123.017927,140.985048 124.783529,140.696279 123.425059,139.817193 C113.342957,131.787753 77.1464645,123.077859 63.6719813,43.4307708 C63.5342927,42.6169033 63.6081997,39.5289835 60.4057551,40.4231397 L60.4057551,40.4231397 Z M23.1994888,88.5241551 C18.6374605,91.1629928 6.86484596,98.592756 2.62077516,102.452216 C1.78048341,103.216359 1.93059268,103.770266 2.27164332,105.104446 C5.42836046,117.453309 24.9425233,139.344307 74.3816498,138.536361 C76.7177057,138.498185 76.7410158,137.784147 75.5382522,136.860992 C74.7550088,136.259854 59.2250167,130.97427 45.176255,117.591113 C38.1468879,110.894786 31.0546661,100.784336 26.3450226,91.2100777 C25.179812,88.598774 24.5830249,87.7238754 23.1994888,88.5241551 L23.1994888,88.5241551 Z" id="Clip-2" transform="translate(75.958432, 71.570908) rotate(-1.000000) translate(-75.958432, -71.570908) "></path>
            </g>
        </g>
    </g>
</svg>