<?xml version="1.0" encoding="UTF-8" standalone="no"?>
<svg width="500px" height="500px" viewBox="0 0 500 500" version="1.1" xmlns="http://www.w3.org/2000/svg" xmlns:xlink="http://www.w3.org/1999/xlink">
    <!-- Generator: Sketch 46.2 (44496) - http://www.bohemiancoding.com/sketch -->
    <title>wave-logo-square</title>
    <desc>Created with Sketch.</desc>
    <defs></defs>
    <g id="Page-1" stroke="none" stroke-width="1" fill="none" fill-rule="evenodd">
        <g id="wave-logo-square" fill="#4840BB">
            <path d="M382.681665,376.978904 L382.681665,376.17059 C382.497484,375.83234 382.125223,375.397024 381.499332,374.840429 C321.968051,324.55763 331.360505,221.71258 350.175659,126.43067 C350.933273,122.594077 351.443684,120.02929 348.386685,119.618055 C328.917013,116.998784 263.725015,126.466164 244.978098,131.229522 C240.099773,132.469051 239.638517,133.86481 239.503068,136.930566 C231.053687,328.17311 348.014286,370.290578 379.879072,377.084011 C380.603164,377.238389 382.195031,377.446275 382.681665,376.978904 L382.681665,376.978904 L382.681665,376.978904 Z M216.013845,190.255485 C191.981401,194.501797 169.651753,203.219938 150.324188,211.062703 C148.629015,211.516712 145.884642,214.336564 146.520426,217.913482 C153.414753,256.700481 188.419459,366.341316 329.354232,377.294086 C332.596405,377.499663 335.883918,376.961983 333.354475,375.325142 C314.581813,360.374492 247.184697,344.15685 222.09549,195.855632 C221.839117,194.340227 221.97673,188.590585 216.013845,190.255485 L216.013845,190.255485 Z M146.736552,279.818574 C138.24215,284.732035 116.321787,298.566099 108.419416,305.752333 C106.85481,307.175152 107.134311,308.206515 107.76934,310.69073 C113.647081,333.684057 149.982046,374.444639 242.036669,372.940259 C246.386357,372.869176 246.42976,371.539653 244.190239,369.820758 C242.731856,368.701451 213.815334,358.859804 187.656833,333.940645 C174.568298,321.472222 161.362729,302.646776 152.59347,284.819706 C150.423873,279.957513 149.312667,278.32847 146.736552,279.818574 L146.736552,279.818574 Z" id="path-3" transform="translate(244.972605, 248.251981) rotate(-1.000000) translate(-244.972605, -248.251981) "></path>
        </g>
    </g>
</svg>